<svg width="204" height="170" viewBox="0 0 204 170" fill="none" xmlns="http://www.w3.org/2000/svg">
<path d="M23.89 158.633C23.1574 154.233 20.7092 152.671 18.4381 153.049C15.9778 153.458 15.0746 155.481 15.0031 158.41L14.896 161.856C14.7892 164.281 14.4184 165.413 12.6204 165.712C10.8935 165.999 9.75816 164.73 9.23432 161.583C8.65927 158.129 9.65311 156.505 11.9479 156.123L12.2317 156.076L11.9482 154.373L11.8062 154.396C8.92004 154.877 6.88518 157.258 7.6296 161.729C8.38583 166.271 10.8695 167.754 13.0223 167.396C15.6482 166.958 16.3938 164.719 16.4613 162.058L16.5407 158.592C16.6279 156.195 17.0894 155.024 18.8637 154.729C20.6616 154.429 21.7772 155.727 22.305 158.897C22.9233 162.611 21.9295 164.235 19.6584 164.613L19.3509 164.664L19.6345 166.368L19.7764 166.344C22.8045 165.84 24.6659 163.293 23.89 158.633Z" fill="white"/>
<path d="M22.1591 145.52L16.5957 145.595C13.6461 145.636 11.6151 144.44 11.572 141.275C11.5358 138.613 12.6696 137.326 15.3794 137.289L22.046 137.199L22.0228 135.496L15.1404 135.59C12.1428 135.63 9.95911 137.315 10.0041 140.624C10.0452 143.646 11.9366 145.155 13.9322 145.512L13.9338 145.632L6.09218 145.738L6.11534 147.441L22.1823 147.222L22.1591 145.52Z" fill="white"/>
<path d="M23.4044 123.731C23.938 119.883 21.7486 116.988 18.1853 116.494C14.6219 116 11.7277 118.19 11.1941 122.038C10.6638 125.863 12.8532 128.757 16.4165 129.251C19.9799 129.745 22.8741 127.556 23.4044 123.731ZM21.8841 123.52C21.4361 126.751 19.4977 127.983 16.6471 127.588C13.8202 127.196 12.2665 125.48 12.7144 122.249C13.1624 119.018 15.1278 117.765 17.9547 118.157C20.8054 118.552 22.332 120.289 21.8841 123.52Z" fill="white"/>
<path d="M29.6289 111.433L22.388 109.279L22.3948 109.256C24.7359 109.377 26.6553 107.971 27.4007 105.466C28.4744 101.857 26.6097 99.1253 23.1616 98.0996C19.7135 97.0738 16.6521 98.365 15.599 101.905C14.7989 104.594 15.6721 106.706 17.5675 107.82L17.5128 108.004L14.3176 107.054L13.8799 108.525L29.1434 113.065L29.6289 111.433ZM20.2502 108.643L20.0433 108.582C17.2389 107.747 16.1451 105.621 16.9862 102.793C17.7521 100.219 19.3821 98.7767 22.6692 99.7546C25.9564 100.733 26.563 102.815 25.7766 105.458C24.9834 108.125 22.9397 109.443 20.2502 108.643Z" fill="white"/>
<path d="M35.1645 85.727L25.9577 80.9234L28.1654 76.6922L26.8684 76.0154L24.6607 80.2467C22.7027 79.3333 22.6084 77.9586 23.6068 76.045L24.3168 74.6842L23.1261 74.0629L22.5271 75.2111C21.1071 77.9328 21.4852 80.267 23.8842 81.7351L22.9967 83.4361L24.2937 84.1128L25.1701 82.4331L34.3768 87.2367L35.1645 85.727Z" fill="white"/>
<path d="M40.6264 76.1934L35.3014 72.5938C33.096 71.103 32.4352 69.3826 33.7783 67.3957C34.9334 65.6869 36.2181 65.5422 37.8871 66.6704L38.6421 67.1808L39.5957 65.7701L38.6222 65.112C36.7942 63.8763 34.4536 63.7415 32.9225 66.0066C31.5391 68.0531 32.0983 70.0522 33.4665 71.4113L33.3993 71.5107L30.717 69.6975L29.8574 70.9691L39.6727 77.6041L40.6264 76.1934Z" fill="white"/>
<path d="M52.2623 61.3568C54.8624 58.4699 54.673 54.8457 52 52.4382C49.3269 50.0307 45.7028 50.2201 43.1026 53.107C40.5186 55.976 40.708 59.6002 43.381 62.0077C46.0541 64.4152 49.6782 64.2258 52.2623 61.3568ZM51.1218 60.3295C48.939 62.7531 46.643 62.6863 44.5045 60.7603C42.3839 58.8503 42.0603 56.5577 44.2431 54.1342C46.426 51.7106 48.7558 51.7756 50.8765 53.6856C53.0149 55.6116 53.3046 57.906 51.1218 60.3295Z" fill="white"/>
<path d="M61.5487 51.3644L58.0757 46.8046C56.1721 44.3052 56.0661 42.3058 58.3556 40.562C60.3398 39.0507 61.9585 39.3553 63.557 41.454L67.5968 46.7579L68.9514 45.7262L65.4783 41.1663C63.5747 38.667 63.4878 36.653 65.7582 34.9238C67.7424 33.4125 69.3803 33.7025 70.9787 35.8012L75.0185 41.1052L76.3731 40.0735L72.188 34.5787C70.3716 32.1938 67.7709 31.4312 65.3097 33.3058C62.9439 35.1077 62.9663 37.4723 63.9343 39.2975L63.8389 39.3701C62.1387 37.7711 59.9676 37.3746 57.8689 38.9731C55.5222 40.7605 55.5391 43.0388 56.4781 44.8258L56.4018 44.8839L54.2366 42.0411L53.0155 42.9712L60.1941 52.3962L61.5487 51.3644Z" fill="white"/>
<path d="M95.0365 30.8488L94.399 29.4262L92.4293 30.309C90.8536 31.0152 89.9231 30.9328 89.2463 29.4227L86.5 23.2948L90.7895 21.3724L90.1912 20.0374L85.9017 21.9598L84.7443 19.3773L83.1686 20.0835L84.3259 22.666L82.4 23.5291L82.9983 24.8641L84.9243 24.001L87.6313 30.0414C88.7691 32.5801 90.55 32.8595 92.6948 31.8982L95.0365 30.8488Z" fill="white"/>
<path d="M101.444 28.4285L99.8386 23.1011C98.9876 20.2767 99.5775 17.9949 102.609 17.0816C105.158 16.3136 106.707 17.0491 107.489 19.6439L109.412 26.0276L111.042 25.5364L109.057 18.946C108.192 16.0756 105.971 14.4404 102.802 15.3952C99.9085 16.267 98.9786 18.501 99.1854 20.5176L99.0706 20.5522L96.8081 13.0433L95.1777 13.5346L99.8135 28.9198L101.444 28.4285Z" fill="white"/>
<path d="M122.571 23.6476C125.846 23.1733 128.023 21.1376 127.669 18.6928L127.645 18.5267L125.96 18.7707L125.984 18.9369C126.231 20.6458 125.098 21.852 122.344 22.2507C119.235 22.701 117.652 21.3066 117.175 18.6857L127.5 17.1906C127.527 16.8718 127.523 16.5089 127.461 16.0816C126.955 12.5926 124.222 10.9528 120.78 11.4512C117.007 11.9977 115.001 14.881 115.516 18.4413C116.056 22.1677 118.797 24.1941 122.571 23.6476ZM120.959 12.855C123.713 12.4563 125.468 13.5349 125.826 16.0034C125.843 16.122 125.86 16.2407 125.877 16.3594L117.024 17.6414C116.772 15.0608 117.921 13.2949 120.959 12.855Z" fill="white"/>
<path d="M143.255 22.155L143.502 18.6623L143.621 18.6707C144.004 21.0781 145.797 22.5754 148.429 22.7616C152.281 23.0341 154.495 20.6183 154.749 17.0298C155.003 13.4414 153.151 10.7377 149.443 10.4754C146.596 10.2739 144.791 11.6609 144.144 13.6588L144.025 13.6503L144.556 6.13851L142.858 6.01832L141.724 22.0467L143.255 22.155ZM143.827 16.4493L143.842 16.234C144.048 13.3154 145.838 11.8071 148.828 12.0187C151.556 12.2117 153.269 13.487 153.027 16.9079C152.785 20.3289 150.955 21.3776 148.132 21.1778C145.285 20.9764 143.629 19.2483 143.827 16.4493Z" fill="white"/>
<path d="M164.869 25.2058C168.099 25.9264 170.858 24.7971 171.395 22.3862L171.432 22.2223L169.77 21.8516L169.733 22.0154C169.358 23.7007 167.869 24.4253 165.154 23.8195C162.087 23.1355 161.103 21.2695 161.589 18.6504L171.771 20.9219C171.909 20.6333 172.034 20.2926 172.128 19.8713C172.896 16.4304 170.924 13.9264 167.53 13.1692C163.808 12.3389 160.908 14.3213 160.125 17.8324C159.305 21.5073 161.147 24.3755 164.869 25.2058ZM167.198 14.545C169.913 15.1507 171.171 16.7828 170.628 19.2172C170.602 19.3342 170.576 19.4512 170.55 19.5683L161.819 17.6205C162.5 15.1186 164.202 13.8766 167.198 14.545Z" fill="white"/>
<path d="M180.877 29.9799C183.75 31.0636 186.229 30.7429 187.016 28.6561C187.693 26.861 186.719 25.5707 184.468 24.3367L181.896 22.9308C180.158 21.9674 179.727 21.3433 180.159 20.199C180.658 18.8751 181.835 18.6781 184.168 19.5586C186.996 20.6253 187.532 21.853 186.906 23.5135L186.863 23.6257L188.456 24.2268L188.473 24.1819C189.455 21.579 187.899 19.4538 184.713 18.2516C181.661 17.1003 179.333 17.6317 178.596 19.5839C177.902 21.4239 178.885 22.6918 180.803 23.723L183.604 25.2669C185.334 26.2528 185.886 26.8967 185.445 28.0635C184.963 29.3425 183.89 29.6042 181.399 28.6645C178.684 27.6401 177.83 26.5745 178.533 24.7121L178.584 24.5775L176.991 23.9764L176.974 24.0213C176.008 26.5793 177.467 28.6931 180.877 29.9799Z" fill="white"/>
<path d="M197.346 37.3607L198.068 35.9793L196.156 34.979C194.626 34.1788 194.114 33.3971 194.881 31.9307L197.993 25.9802L202.159 28.1587L202.837 26.8623L198.671 24.6839L199.983 22.1761L198.453 21.3759L197.141 23.8836L195.271 22.9055L194.593 24.2019L196.463 25.18L193.395 31.0454C192.106 33.5106 192.989 35.0822 195.072 36.1714L197.346 37.3607Z" fill="white"/>
</svg>
