<svg width="279" height="170" viewBox="0 0 279 170" fill="none" xmlns="http://www.w3.org/2000/svg">
<path d="M23.89 158.633C23.1574 154.233 20.7092 152.671 18.4381 153.049C15.9778 153.458 15.0746 155.481 15.0031 158.41L14.896 161.856C14.7892 164.281 14.4184 165.413 12.6204 165.712C10.8935 165.999 9.75816 164.73 9.23432 161.583C8.65927 158.129 9.65311 156.505 11.9479 156.123L12.2317 156.076L11.9482 154.373L11.8062 154.396C8.92004 154.877 6.88518 157.258 7.6296 161.729C8.38583 166.271 10.8695 167.754 13.0223 167.396C15.6482 166.958 16.3938 164.719 16.4613 162.058L16.5407 158.592C16.6279 156.195 17.0894 155.024 18.8637 154.729C20.6616 154.429 21.7772 155.727 22.305 158.897C22.9233 162.611 21.9295 164.235 19.6584 164.613L19.3509 164.664L19.6345 166.368L19.7764 166.344C22.8045 165.84 24.6659 163.293 23.89 158.633Z" fill="#1C1C1C"/>
<path d="M22.1591 145.52L16.5957 145.595C13.6461 145.636 11.6151 144.44 11.572 141.275C11.5358 138.613 12.6696 137.326 15.3794 137.289L22.046 137.199L22.0228 135.496L15.1404 135.59C12.1428 135.63 9.95911 137.315 10.0041 140.624C10.0452 143.646 11.9366 145.155 13.9322 145.512L13.9338 145.632L6.09218 145.738L6.11534 147.441L22.1823 147.222L22.1591 145.52Z" fill="#1C1C1C"/>
<path d="M23.4044 123.731C23.938 119.883 21.7486 116.988 18.1852 116.494C14.6219 116 11.7276 118.19 11.1941 122.038C10.6638 125.863 12.8532 128.757 16.4165 129.251C19.9798 129.745 22.8741 127.556 23.4044 123.731ZM21.884 123.52C21.4361 126.751 19.4977 127.983 16.6471 127.588C13.8202 127.196 12.2665 125.48 12.7144 122.249C13.1624 119.018 15.1278 117.765 17.9547 118.157C20.8053 118.552 22.332 120.289 21.884 123.52Z" fill="#1C1C1C"/>
<path d="M29.6289 111.433L22.388 109.279L22.3948 109.256C24.7359 109.377 26.6553 107.972 27.4007 105.466C28.4744 101.857 26.6097 99.1254 23.1616 98.0996C19.7135 97.0739 16.6521 98.365 15.599 101.905C14.7989 104.595 15.6721 106.706 17.5675 107.82L17.5128 108.004L14.3176 107.054L13.8799 108.525L29.1434 113.065L29.6289 111.433ZM20.2502 108.643L20.0433 108.582C17.2389 107.747 16.1451 105.621 16.9862 102.793C17.7521 100.219 19.3821 98.7768 22.6692 99.7547C25.9564 100.733 26.563 102.815 25.7766 105.458C24.9834 108.125 22.9397 109.443 20.2502 108.643Z" fill="#1C1C1C"/>
<path d="M35.1645 85.727L25.9577 80.9234L28.1654 76.6922L26.8684 76.0154L24.6607 80.2467C22.7027 79.3333 22.6084 77.9586 23.6068 76.045L24.3168 74.6842L23.1261 74.0629L22.5271 75.2111C21.1071 77.9328 21.4852 80.267 23.8842 81.7351L22.9967 83.4361L24.2937 84.1128L25.1701 82.4331L34.3768 87.2367L35.1645 85.727Z" fill="#1C1C1C"/>
<path d="M40.6264 76.1934L35.3014 72.5939C33.096 71.103 32.4352 69.3826 33.7783 67.3957C34.9334 65.687 36.2181 65.5423 37.8871 66.6705L38.6421 67.1809L39.5957 65.7702L38.6222 65.112C36.7942 63.8764 34.4536 63.7416 32.9225 66.0067C31.5391 68.0532 32.0983 70.0523 33.4665 71.4114L33.3993 71.5107L30.717 69.6975L29.8574 70.9692L39.6727 77.6041L40.6264 76.1934Z" fill="#1C1C1C"/>
<path d="M52.2623 61.3568C54.8624 58.4699 54.673 54.8457 52 52.4382C49.3269 50.0307 45.7028 50.2201 43.1026 53.107C40.5186 55.976 40.708 59.6002 43.381 62.0077C46.0541 64.4152 49.6782 64.2258 52.2623 61.3568ZM51.1218 60.3295C48.939 62.7531 46.643 62.6863 44.5045 60.7603C42.3839 58.8503 42.0603 56.5577 44.2431 54.1342C46.426 51.7106 48.7558 51.7756 50.8765 53.6856C53.0149 55.6116 53.3046 57.906 51.1218 60.3295Z" fill="#1C1C1C"/>
<path d="M61.5487 51.3645L58.0757 46.8046C56.1721 44.3053 56.0661 42.3058 58.3556 40.5621C60.3398 39.0508 61.9586 39.3554 63.557 41.454L67.5968 46.758L68.9514 45.7263L65.4784 41.1664C63.5747 38.667 63.4879 36.6531 65.7583 34.9238C67.7425 33.4126 69.3803 33.7026 70.9788 35.8013L75.0185 41.1053L76.3731 40.0735L72.1881 34.5788C70.3716 32.1939 67.771 31.4313 65.3098 33.3059C62.944 35.1078 62.9663 37.4724 63.9344 39.2975L63.839 39.3702C62.1387 37.7711 59.9676 37.3747 57.869 38.9732C55.5222 40.7605 55.5391 43.0388 56.4781 44.8258L56.4018 44.884L54.2366 42.0412L53.0156 42.9712L60.1941 52.3962L61.5487 51.3645Z" fill="#1C1C1C"/>
<path d="M95.0366 30.8487L94.399 29.4262L92.4293 30.3089C90.8536 31.0151 89.9231 30.9328 89.2464 29.4227L86.5 23.2948L90.7896 21.3724L90.1913 20.0373L85.9017 21.9598L84.7443 19.3773L83.1686 20.0835L84.326 22.666L82.4001 23.5291L82.9984 24.8641L84.9243 24.001L87.6314 30.0414C88.7691 32.5801 90.5501 32.8594 92.6948 31.8982L95.0366 30.8487Z" fill="#1C1C1C"/>
<path d="M101.444 28.4286L99.8386 23.1011C98.9876 20.2767 99.5775 17.9949 102.609 17.0816C105.158 16.3136 106.707 17.0491 107.489 19.6439L109.412 26.0277L111.042 25.5364L109.057 18.946C108.192 16.0756 105.971 14.4405 102.802 15.3953C99.9085 16.2671 98.9786 18.501 99.1854 20.5176L99.0706 20.5522L96.8081 13.0433L95.1777 13.5346L99.8135 28.9198L101.444 28.4286Z" fill="#1C1C1C"/>
<path d="M122.571 23.6476C125.846 23.1733 128.023 21.1375 127.669 18.6928L127.645 18.5266L125.96 18.7707L125.984 18.9368C126.231 20.6457 125.098 21.852 122.344 22.2506C119.235 22.7009 117.652 21.3065 117.175 18.6857L127.5 17.1906C127.527 16.8717 127.523 16.5088 127.461 16.0816C126.955 12.5925 124.222 10.9528 120.78 11.4511C117.007 11.9976 115.001 14.881 115.516 18.4413C116.056 22.1677 118.797 24.1941 122.571 23.6476ZM120.959 12.8549C123.713 12.4562 125.468 13.5348 125.826 16.0033C125.843 16.122 125.86 16.2407 125.877 16.3593L117.024 17.6413C116.772 15.0607 117.921 13.2949 120.959 12.8549Z" fill="#1C1C1C"/>
<path d="M143.255 22.155L143.502 18.6623L143.621 18.6707C144.004 21.0781 145.797 22.5754 148.429 22.7616C152.281 23.0341 154.495 20.6183 154.749 17.0298C155.003 13.4414 153.151 10.7377 149.443 10.4754C146.596 10.2739 144.791 11.6609 144.144 13.6588L144.025 13.6503L144.556 6.13851L142.858 6.01832L141.724 22.0467L143.255 22.155ZM143.827 16.4493L143.842 16.234C144.048 13.3154 145.838 11.8071 148.828 12.0187C151.556 12.2117 153.269 13.487 153.027 16.9079C152.785 20.3289 150.955 21.3776 148.132 21.1778C145.285 20.9764 143.629 19.2483 143.827 16.4493Z" fill="#1C1C1C"/>
<path d="M164.869 25.2058C168.099 25.9264 170.858 24.7972 171.395 22.3862L171.432 22.2223L169.77 21.8516L169.733 22.0154C169.358 23.7008 167.869 24.4253 165.154 23.8196C162.087 23.1355 161.103 21.2695 161.589 18.6504L171.771 20.922C171.909 20.6333 172.034 20.2927 172.128 19.8713C172.896 16.4305 170.924 13.9264 167.53 13.1692C163.808 12.3389 160.908 14.3213 160.125 17.8324C159.305 21.5074 161.147 24.3755 164.869 25.2058ZM167.198 14.545C169.913 15.1508 171.171 16.7828 170.628 19.2172C170.602 19.3342 170.576 19.4513 170.55 19.5683L161.819 17.6205C162.5 15.1186 164.202 13.8766 167.198 14.545Z" fill="#1C1C1C"/>
<path d="M180.877 29.9799C183.75 31.0636 186.229 30.743 187.016 28.6561C187.693 26.861 186.719 25.5707 184.468 24.3367L181.896 22.9309C180.158 21.9674 179.727 21.3434 180.159 20.199C180.658 18.8751 181.835 18.6782 184.168 19.5586C186.996 20.6253 187.532 21.8531 186.906 23.5135L186.863 23.6257L188.456 24.2268L188.473 24.1819C189.455 21.579 187.899 19.4538 184.713 18.2517C181.661 17.1003 179.333 17.6318 178.596 19.5839C177.902 21.4239 178.885 22.6918 180.803 23.723L183.604 25.2669C185.334 26.2528 185.886 26.8967 185.445 28.0635C184.963 29.3425 183.89 29.6042 181.399 28.6645C178.684 27.6401 177.83 26.5746 178.533 24.7122L178.584 24.5775L176.991 23.9764L176.974 24.0213C176.008 26.5793 177.467 28.6931 180.877 29.9799Z" fill="#1C1C1C"/>
<path d="M197.346 37.3607L198.068 35.9793L196.156 34.979C194.626 34.1788 194.114 33.3971 194.881 31.9307L197.993 25.9802L202.159 28.1587L202.837 26.8623L198.671 24.6839L199.983 22.1761L198.453 21.3759L197.141 23.8836L195.271 22.9055L194.593 24.2019L196.463 25.18L193.395 31.0454C192.106 33.5106 192.989 35.0822 195.072 36.1714L197.346 37.3607Z" fill="#1C1C1C"/>
<path d="M212.05 47.6023C214.089 49.2382 216.441 49.3726 218.376 47.8809L218.451 47.9409L216.26 50.672L217.476 51.6476L227.531 39.1143L226.203 38.0487L221.49 43.9225L221.397 43.8475C222.261 41.9273 221.841 39.6532 219.652 37.8972C216.809 35.616 213.557 36.2968 211.306 39.1028C209.055 41.9087 209.095 45.231 212.05 47.6023ZM212.653 40.1834C214.799 37.5083 216.96 37.7661 219.073 39.462C221.356 41.293 221.701 43.6606 219.87 45.9428L219.735 46.1112C217.979 48.2998 215.533 48.3975 213.363 46.6565C211.193 44.9156 210.506 42.8584 212.653 40.1834Z" fill="#1C1C1C"/>
<path d="M225.449 59.9897C227.694 62.4207 230.605 63.0622 232.42 61.386L232.543 61.2721L231.387 60.0213L231.264 60.1352C229.996 61.3069 228.36 61.0554 226.472 59.0119C224.34 56.7041 224.593 54.6097 226.483 52.7328L233.562 60.396C233.84 60.2373 234.137 60.0284 234.454 59.7355C237.043 57.3432 236.847 54.1617 234.487 51.6074C231.9 48.8063 228.387 48.786 225.745 51.227C222.979 53.782 222.861 57.1887 225.449 59.9897ZM233.432 52.5499C235.319 54.5934 235.425 56.6511 233.592 58.3436C233.504 58.425 233.416 58.5063 233.328 58.5877L227.258 52.0168C229.242 50.3473 231.349 50.295 233.432 52.5499Z" fill="#1C1C1C"/>
<path d="M235.894 73.0266C237.638 75.5524 239.859 76.6998 241.694 75.4322C243.273 74.3417 243.206 72.7262 242.058 70.4301L240.744 67.8108C239.863 66.0291 239.863 65.2707 240.87 64.5755C242.034 63.7713 243.113 64.279 244.531 66.3312C246.249 68.8175 245.991 70.1323 244.531 71.141L244.432 71.2092L245.4 72.6102L245.439 72.5829C247.728 71.0017 247.658 68.3685 245.723 65.5665C243.869 62.8828 241.652 61.9948 239.935 63.1806C238.317 64.2984 238.404 65.9002 239.394 67.8397L240.818 70.7034C241.679 72.4987 241.766 73.3421 240.74 74.0509C239.616 74.8279 238.584 74.4324 237.071 72.2421C235.422 69.8545 235.326 68.4923 236.964 67.3609L237.083 67.2791L236.115 65.8781L236.075 65.9054C233.826 67.4593 233.822 70.0273 235.894 73.0266Z" fill="#1C1C1C"/>
<path d="M254.353 77.1256L256.726 75.8178L255.905 74.3264L253.531 75.6342L254.353 77.1256ZM242.653 83.5721L253.029 77.8547L252.208 76.3633L241.831 82.0807L242.653 83.5721Z" fill="#1C1C1C"/>
<path d="M248.335 93.1205C249.387 95.6439 251.301 96.7428 253.167 96.4839L253.214 96.5946L250.358 97.7854C247.636 98.9209 246.311 98.1741 245.129 95.3409C244.114 92.906 244.331 91.3083 246.257 90.5052L245.601 88.9336C243.056 89.9952 242.514 92.8715 243.751 95.8376C245.127 99.1357 247.494 100.825 251.102 99.3201L260.996 95.1937L260.406 93.7771L257.594 94.9494L257.548 94.8388C259.312 93.5837 259.639 91.3163 258.679 89.0143C257.276 85.6498 254.27 84.4866 251.282 85.7329C248.294 86.9791 246.978 89.8667 248.335 93.1205ZM251.938 87.3044C254.727 86.1413 256.408 87.493 257.432 89.95C258.485 92.4734 257.884 94.6468 255.737 95.5422L255.361 95.6992C253.036 96.6684 251.031 95.66 249.905 92.9595C248.917 90.5911 249.149 88.4676 251.938 87.3044Z" fill="#1C1C1C"/>
<path d="M252.348 107.017L257.91 105.634C260.866 104.899 262.929 105.942 263.624 108.735C264.278 111.365 263.188 112.847 260.814 113.437L254.344 115.046L254.755 116.699L261.458 115.032C264.181 114.355 266.086 112.176 265.281 108.941C264.57 106.078 262.279 104.918 260.226 105.008L260.197 104.892L263.804 103.995L263.434 102.505L251.937 105.364L252.348 107.017Z" fill="#1C1C1C"/>
<path d="M256.089 128.352C256.403 131.647 258.33 133.921 260.789 133.687L260.956 133.671L260.795 131.976L260.628 131.992C258.909 132.155 257.759 130.964 257.496 128.194C257.198 125.067 258.668 123.554 261.309 123.206L262.298 133.592C262.615 133.634 262.978 133.647 263.407 133.606C266.917 133.272 268.688 130.622 268.359 127.161C267.998 123.365 265.216 121.22 261.635 121.561C257.886 121.918 255.728 124.556 256.089 128.352ZM266.948 127.271C267.212 130.04 266.048 131.741 263.565 131.977C263.446 131.989 263.327 132 263.207 132.011L262.36 123.106C264.95 122.98 266.657 124.215 266.948 127.271Z" fill="#1C1C1C"/>
<path d="M256.885 141.572L263.307 141.838C265.967 141.948 267.433 143.065 267.334 145.461C267.249 147.522 266.231 148.32 264.219 148.237L263.308 148.199L263.238 149.9L264.412 149.949C266.616 150.04 268.679 148.925 268.792 146.194C268.894 143.725 267.368 142.318 265.49 141.88L265.495 141.761L268.73 141.894L268.793 140.361L256.956 139.871L256.885 141.572Z" fill="#1C1C1C"/>
<path d="M254.88 159.732C254.353 162.756 255.132 165.131 257.329 165.514C259.219 165.844 260.305 164.645 261.095 162.202L261.995 159.414C262.616 157.526 263.149 156.985 264.354 157.195C265.748 157.438 266.161 158.557 265.733 161.014C265.214 163.991 264.109 164.748 262.36 164.443L262.242 164.423L261.95 166.1L261.997 166.109C264.738 166.586 266.534 164.66 267.119 161.305C267.679 158.091 266.721 155.904 264.666 155.546C262.728 155.208 261.667 156.411 261.012 158.488L260.02 161.528C259.375 163.412 258.846 164.074 257.617 163.86C256.271 163.626 255.813 162.621 256.27 159.998C256.768 157.139 257.655 156.101 259.616 156.443L259.758 156.467L260.05 154.79L260.003 154.782C257.309 154.312 255.506 156.14 254.88 159.732Z" fill="#1C1C1C"/>
</svg>
