<svg width="24" height="25" viewBox="0 0 24 25" fill="none" xmlns="http://www.w3.org/2000/svg">
<path d="M1.67687 11.5867C1.60557 11.9413 1.53183 12.3079 1.45488 12.6874C0.499665 18.0341 1.1258 20.4984 2.60654 21.7669C3.38023 22.4296 4.50292 22.8777 6.09219 23.1491C7.67994 23.4203 9.63627 23.5 12 23.5C14.3637 23.5 16.32 23.4203 17.9078 23.1491C19.4971 22.8777 20.6198 22.4296 21.3935 21.7669C22.8742 20.4984 23.5003 18.0341 22.5451 12.6874C22.4682 12.308 22.3944 11.9414 22.3231 11.5869C21.9457 9.71013 21.6369 8.1746 21.2861 6.89209C20.869 5.36703 20.422 4.32051 19.8227 3.57271C18.6889 2.15784 16.7471 1.5 12 1.5C7.25288 1.5 5.31108 2.15784 4.17727 3.57271C3.57801 4.32051 3.13097 5.36703 2.71388 6.89209C2.36313 8.17456 2.05432 9.71003 1.67687 11.5867Z" stroke="#212135" stroke-width="2" stroke-linecap="round" stroke-linejoin="round"/>
</svg>
